<svg xmlns="http://www.w3.org/2000/svg" version="1.1" xmlns:xlink="http://www.w3.org/1999/xlink" xmlns:svgjs="http://svgjs.dev/svgjs" width="2000" height="2872" viewBox="0 0 2000 2872"><g transform="matrix(1,0,0,1,-1.9379844961242725,1.1627530364371523)"><svg viewBox="0 0 172 247" data-background-color="#ffffff" preserveAspectRatio="xMidYMid meet" height="2872" width="2000" xmlns="http://www.w3.org/2000/svg" xmlns:xlink="http://www.w3.org/1999/xlink"><g id="tight-bounds" transform="matrix(1,0,0,1,0.16666666666668561,-0.09999999999999432)"><svg viewBox="0 0 171.66666666666663 247.2" height="247.2" width="171.66666666666663"><g><svg viewBox="0 0 171.66666666666663 247.2" height="247.2" width="171.66666666666663"><g><svg viewBox="0 0 171.66666666666663 247.2" height="247.2" width="171.66666666666663"><g id="textblocktransform"><svg viewBox="0 0 171.66666666666663 247.2" height="247.2" width="171.66666666666663" id="textblock"><g><svg viewBox="0 0 171.66666666666663 247.2" height="247.2" width="171.66666666666663"><g transform="matrix(1,0,0,1,0,0)"><svg width="171.66666666666663" viewBox="-2.15 -37.5 30 43.2" height="247.2" data-palette-color="#ff0000"><path d="M27.85 0L22.35 0 22.35-18Q20.45-18.9 18.03-19.53 15.6-20.15 13.1-20.45L13.1-20.45Q12.5-18.25 12-15.93 11.5-13.6 11.15-11.33 10.8-9.05 10.6-6.88 10.4-4.7 10.4-2.75L10.4-2.75Q10.4-0.55 10.73 1.55 11.05 3.65 12.15 5.7L12.15 5.7Q11 5.7 9.75 5.45 8.5 5.2 7.45 4.33 6.4 3.45 5.73 1.83 5.05 0.2 5.05-2.55L5.05-2.55Q5.05-4.3 5.3-6.45 5.55-8.6 6.05-10.95 6.55-13.3 7.28-15.78 8-18.25 8.9-20.65L8.9-20.65Q7.45-20.6 6.18-20.4 4.9-20.2 3.98-19.83 3.05-19.45 2.5-18.95 1.95-18.45 1.95-17.85L1.95-17.85Q1.95-17.65 2-17.55L2-17.55Q3.3-17.15 3.3-15.9L3.3-15.9Q3.3-15 2.65-14.65 2-14.3 1.25-14.3L1.25-14.3Q0-14.3-1.07-15.03-2.15-15.75-2.15-17.55L-2.15-17.55Q-2.15-18.75-1.43-19.7-0.7-20.65 0.58-21.33 1.85-22 3.58-22.35 5.3-22.7 7.35-22.7L7.35-22.7Q7.9-22.7 8.5-22.68 9.1-22.65 9.7-22.6L9.7-22.6Q10.95-25.6 12.5-28.33 14.05-31.05 15.85-33.08 17.65-35.1 19.65-36.3 21.65-37.5 23.85-37.5L23.85-37.5Q24.6-37.5 25.73-37.35 26.85-37.2 27.85-36.8L27.85-36.8 27.85 0ZM13.6-22.1L13.6-22.1Q16.1-21.65 18.4-20.98 20.7-20.3 22.35-19.5L22.35-19.5 22.35-35.1Q21.1-35 19.9-33.98 18.7-32.95 17.57-31.2 16.45-29.45 15.45-27.13 14.45-24.8 13.6-22.1Z" opacity="1" transform="matrix(1,0,0,1,0,0)" fill="#ff0000" class="wordmark-text-0" data-fill-palette-color="primary" id="text-0"></path></svg></g></svg></g></svg></g></svg></g><g></g></svg></g><defs></defs></svg><rect width="171.66666666666663" height="247.2" fill="none" stroke="none" visibility="hidden"></rect></g></svg></g></svg>